<svg width="248" height="198" viewBox="0 0 248 198" fill="none" xmlns="http://www.w3.org/2000/svg">
<path d="M124 0L124 74L50.996 74C22.8317 74 3.24508e-06 51.1683 2.90922e-06 23.004L2.6349e-06 1.47869e-06L124 0Z" fill="#DBFF01"/>
<path d="M124 198H248V174.996C248 146.832 225.168 124 197.004 124H124V198Z" fill="#DBFF01"/>
<path d="M248 0C248 16.2839 244.793 32.4084 238.561 47.4527C232.329 62.4971 223.196 76.1668 211.681 87.6812C200.167 99.1957 186.497 108.329 171.453 114.561C156.408 120.793 140.284 124 124 124L124 0H248Z" fill="#DBFF01"/>
<path d="M0 198C1.42358e-06 181.716 3.20736 165.592 9.43894 150.547C15.6705 135.503 24.8043 121.833 36.3188 110.319C47.8332 98.8043 61.5029 89.6705 76.5473 83.4389C91.5916 77.2074 107.716 74 124 74L124 198L0 198Z" fill="#DBFF01"/>
</svg>
