<svg width="184" height="178" viewBox="0 0 184 178" fill="none" xmlns="http://www.w3.org/2000/svg">
<path d="M0.817383 0.166504C61.0702 0.166504 121.323 0.166504 183.402 0.166504C183.402 58.7627 183.402 117.359 183.402 177.731C123.149 177.731 62.896 177.731 0.817383 177.731C0.817383 119.134 0.817383 60.5383 0.817383 0.166504Z" fill="black"/>
<path d="M139.581 99.6024C141.992 99.6024 144.402 99.6024 146.885 99.6024C146.885 104.29 146.885 108.978 146.885 113.808C154.115 113.808 161.345 113.808 168.795 113.808C168.795 109.12 168.795 104.432 168.795 99.6024C173.615 99.6024 178.435 99.6024 183.402 99.6024C183.402 101.946 183.402 104.29 183.402 106.705C180.992 106.705 178.581 106.705 176.098 106.705C176.098 109.049 176.098 111.393 176.098 113.808C178.508 113.808 180.919 113.808 183.402 113.808C183.402 116.151 183.402 118.495 183.402 120.91C180.992 120.91 178.581 120.91 176.098 120.91C176.098 123.254 176.098 125.598 176.098 128.013C178.508 128.013 180.919 128.013 183.402 128.013C183.402 130.357 183.402 132.7 183.402 135.115C180.992 135.115 178.581 135.115 176.098 135.115C176.098 137.459 176.098 139.803 176.098 142.218C178.508 142.218 180.919 142.218 183.402 142.218C183.402 153.937 183.402 165.656 183.402 177.731C176.171 177.731 168.941 177.731 161.492 177.731C161.492 175.387 161.492 173.043 161.492 170.628C166.312 170.628 171.132 170.628 176.098 170.628C176.098 165.94 176.098 161.253 176.098 156.423C173.688 156.423 171.278 156.423 168.795 156.423C168.795 158.767 168.795 161.111 168.795 163.525C166.385 163.525 163.975 163.525 161.492 163.525C161.492 158.838 161.492 154.15 161.492 149.32C159.081 149.32 156.671 149.32 154.188 149.32C154.188 151.664 154.188 154.008 154.188 156.423C146.958 156.423 139.727 156.423 132.278 156.423C132.278 154.079 132.278 151.735 132.278 149.32C127.458 149.32 122.638 149.32 117.671 149.32C117.671 151.664 117.671 154.008 117.671 156.423C115.261 156.423 112.851 156.423 110.368 156.423C110.368 149.391 110.368 142.36 110.368 135.115C112.778 135.115 115.188 135.115 117.671 135.115C117.671 130.428 117.671 125.74 117.671 120.91C115.261 120.91 112.851 120.91 110.368 120.91C110.368 118.566 110.368 116.222 110.368 113.808C115.188 113.808 120.008 113.808 124.975 113.808C124.975 111.464 124.975 109.12 124.975 106.705C129.795 106.705 134.615 106.705 139.581 106.705C139.581 104.361 139.581 102.017 139.581 99.6024Z" fill="#FBFBFB"/>
<path d="M0.817383 128.013C17.6882 128.013 34.559 128.013 51.941 128.013C51.941 144.42 51.941 160.827 51.941 177.731C35.0702 177.731 18.1994 177.731 0.817383 177.731C0.817383 161.324 0.817383 144.917 0.817383 128.013Z" fill="#030303"/>
<path d="M51.941 92.4998C56.7612 92.4998 61.5814 92.4998 66.5477 92.4998C66.5477 94.8437 66.5477 97.1875 66.5477 99.6024C64.1376 99.6024 61.7275 99.6024 59.2444 99.6024C59.2444 101.946 59.2444 104.29 59.2444 106.705C61.6545 106.705 64.0646 106.705 66.5477 106.705C66.5477 109.049 66.5477 111.393 66.5477 113.808C68.9578 113.808 71.3679 113.808 73.8511 113.808C73.8511 116.151 73.8511 118.495 73.8511 120.91C71.441 120.91 69.0309 120.91 66.5477 120.91C66.5477 125.598 66.5477 130.285 66.5477 135.115C68.9578 135.115 71.3679 135.115 73.8511 135.115C73.8511 132.771 73.8511 130.428 73.8511 128.013C76.2612 128.013 78.6713 128.013 81.1545 128.013C81.1545 130.357 81.1545 132.7 81.1545 135.115C83.5646 135.115 85.9747 135.115 88.4578 135.115C88.4578 132.771 88.4578 130.428 88.4578 128.013C90.8679 128.013 93.2781 128.013 95.7612 128.013C95.7612 130.357 95.7612 132.7 95.7612 135.115C98.1713 135.115 100.581 135.115 103.065 135.115C103.065 137.459 103.065 139.803 103.065 142.218C100.654 142.218 98.2444 142.218 95.7612 142.218C95.7612 146.905 95.7612 151.593 95.7612 156.423C98.1713 156.423 100.581 156.423 103.065 156.423C103.065 158.767 103.065 161.111 103.065 163.525C98.2443 163.525 93.4241 163.525 88.4578 163.525C88.4578 165.869 88.4578 168.213 88.4578 170.628C83.6376 170.628 78.8174 170.628 73.8511 170.628C73.8511 168.284 73.8511 165.94 73.8511 163.525C71.441 163.525 69.0309 163.525 66.5477 163.525C66.5477 165.869 66.5477 168.213 66.5477 170.628C64.1376 170.628 61.7275 170.628 59.2444 170.628C59.2444 154.221 59.2444 137.814 59.2444 120.91C54.4241 120.91 49.6039 120.91 44.6376 120.91C44.6376 118.566 44.6376 116.222 44.6376 113.808C42.2275 113.808 39.8174 113.808 37.3342 113.808C37.3342 116.151 37.3342 118.495 37.3342 120.91C30.1039 120.91 22.8736 120.91 15.4241 120.91C15.4241 113.879 15.4241 106.847 15.4241 99.6024C20.2444 99.6024 25.0646 99.6024 30.0309 99.6024C30.0309 101.946 30.0309 104.29 30.0309 106.705C34.8511 106.705 39.6713 106.705 44.6376 106.705C44.6376 104.361 44.6376 102.017 44.6376 99.6024C47.0477 99.6024 49.4578 99.6024 51.941 99.6024C51.941 97.2586 51.941 94.9147 51.941 92.4998Z" fill="#FBFBFB"/>
<path d="M132.278 0.166504C149.149 0.166504 166.02 0.166504 183.402 0.166504C183.402 16.5734 183.402 32.9803 183.402 49.8845C166.531 49.8845 149.66 49.8845 132.278 49.8845C132.278 33.4775 132.278 17.0706 132.278 0.166504Z" fill="#030303"/>
<path d="M0.817383 0.166504C17.6882 0.166504 34.559 0.166504 51.941 0.166504C51.941 16.5734 51.941 32.9803 51.941 49.8845C35.0702 49.8845 18.1994 49.8845 0.817383 49.8845C0.817383 33.4775 0.817383 17.0706 0.817383 0.166504Z" fill="#030303"/>
<path d="M8.12075 56.987C24.9915 56.987 41.8623 56.987 59.2444 56.987C59.2444 61.6747 59.2444 66.3624 59.2444 71.1921C61.6545 71.1921 64.0646 71.1921 66.5477 71.1921C66.5477 73.536 66.5477 75.8798 66.5477 78.2947C64.1376 78.2947 61.7275 78.2947 59.2444 78.2947C59.2444 80.6386 59.2444 82.9824 59.2444 85.3973C56.8342 85.3973 54.4241 85.3973 51.941 85.3973C51.941 83.0534 51.941 80.7096 51.941 78.2947C49.5309 78.2947 47.1208 78.2947 44.6376 78.2947C44.6376 75.9509 44.6376 73.607 44.6376 71.1921C42.2275 71.1921 39.8174 71.1921 37.3342 71.1921C37.3342 75.8798 37.3342 80.5675 37.3342 85.3973C34.9241 85.3973 32.514 85.3973 30.0309 85.3973C30.0309 87.7411 30.0309 90.085 30.0309 92.4998C25.2106 92.4998 20.3904 92.4998 15.4241 92.4998C15.4241 90.156 15.4241 87.8121 15.4241 85.3973C13.014 85.3973 10.6039 85.3973 8.12075 85.3973C8.12075 97.1165 8.12075 108.836 8.12075 120.91C5.71064 120.91 3.30053 120.91 0.817383 120.91C0.817383 102.159 0.817383 83.4086 0.817383 64.0896C3.2275 64.0896 5.63761 64.0896 8.12075 64.0896C8.12075 61.7457 8.12075 59.4019 8.12075 56.987Z" fill="#FCFCFC"/>
<path d="M0.817383 128.013C17.6882 128.013 34.559 128.013 51.941 128.013C51.941 144.42 51.941 160.827 51.941 177.731C35.0702 177.731 18.1994 177.731 0.817383 177.731C0.817383 161.324 0.817383 144.917 0.817383 128.013ZM8.12075 135.115C8.12075 146.834 8.12075 158.554 8.12075 170.628C20.1713 170.628 32.2219 170.628 44.6376 170.628C44.6376 158.909 44.6376 147.19 44.6376 135.115C32.587 135.115 20.5365 135.115 8.12075 135.115Z" fill="#FCFCFC"/>
<path d="M132.278 0.166504C149.149 0.166504 166.02 0.166504 183.402 0.166504C183.402 16.5734 183.402 32.9803 183.402 49.8845C166.531 49.8845 149.66 49.8845 132.278 49.8845C132.278 33.4775 132.278 17.0706 132.278 0.166504ZM139.581 7.26907C139.581 18.9883 139.581 30.7075 139.581 42.7819C151.632 42.7819 163.683 42.7819 176.098 42.7819C176.098 31.0627 176.098 19.3434 176.098 7.26907C164.048 7.26907 151.997 7.26907 139.581 7.26907Z" fill="#FCFCFC"/>
<path d="M0.817383 0.166504C17.6882 0.166504 34.559 0.166504 51.941 0.166504C51.941 16.5734 51.941 32.9803 51.941 49.8845C35.0702 49.8845 18.1994 49.8845 0.817383 49.8845C0.817383 33.4775 0.817383 17.0706 0.817383 0.166504ZM8.12075 7.26907C8.12075 18.9883 8.12075 30.7075 8.12075 42.7819C20.1713 42.7819 32.2219 42.7819 44.6376 42.7819C44.6376 31.0627 44.6376 19.3434 44.6376 7.26907C32.587 7.26907 20.5365 7.26907 8.12075 7.26907Z" fill="#FCFCFC"/>
<path d="M124.975 64.0896C127.385 64.0896 129.795 64.0896 132.278 64.0896C132.278 66.4334 132.278 68.7773 132.278 71.1921C134.688 71.1921 137.098 71.1921 139.581 71.1921C139.581 75.8798 139.581 80.5675 139.581 85.3973C141.992 85.3973 144.402 85.3973 146.885 85.3973C146.885 83.0534 146.885 80.7096 146.885 78.2947C149.295 78.2947 151.705 78.2947 154.188 78.2947C154.188 75.9509 154.188 73.607 154.188 71.1921C156.598 71.1921 159.008 71.1921 161.492 71.1921C161.492 68.8483 161.492 66.5045 161.492 64.0896C163.902 64.0896 166.312 64.0896 168.795 64.0896C168.795 68.7773 168.795 73.465 168.795 78.2947C171.205 78.2947 173.615 78.2947 176.098 78.2947C176.098 75.9509 176.098 73.607 176.098 71.1921C178.508 71.1921 180.918 71.1921 183.402 71.1921C183.402 78.2237 183.402 85.2552 183.402 92.4998C180.992 92.4998 178.581 92.4998 176.098 92.4998C176.098 90.156 176.098 87.8121 176.098 85.3973C173.688 85.3973 171.278 85.3973 168.795 85.3973C168.795 90.085 168.795 94.7727 168.795 99.6024C166.385 99.6024 163.975 99.6024 161.492 99.6024C161.492 97.2586 161.492 94.9147 161.492 92.4998C151.851 92.4998 142.211 92.4998 132.278 92.4998C132.278 87.8121 132.278 83.1245 132.278 78.2947C127.458 78.2947 122.638 78.2947 117.671 78.2947C117.671 75.9509 117.671 73.607 117.671 71.1921C120.081 71.1921 122.492 71.1921 124.975 71.1921C124.975 68.8483 124.975 66.5045 124.975 64.0896Z" fill="#FAFAFA"/>
<path d="M72.0253 72.9678C85.2809 72.9678 98.5365 72.9678 112.194 72.9678C111.363 79.4293 110.938 82.4994 106.716 87.1729C104.398 88.8972 102.004 90.3113 99.4129 91.612C100.03 91.6887 100.646 91.7654 101.282 91.8444C107.886 92.8561 107.886 92.8561 110.939 95.3298C112.194 97.8268 112.194 97.8268 112.194 104.042C98.9382 104.042 85.6826 104.042 72.0253 104.042C72.8558 97.58 73.2812 94.5099 77.5028 89.8364C79.821 88.1121 82.2148 86.698 84.8062 85.3973C84.266 85.395 83.7258 85.3927 83.1693 85.3903C79.3262 85.2074 76.4927 85.0309 73.794 82.1789C72.0253 79.1825 72.0253 79.1825 72.0253 72.9678Z" fill="#FBFBFB"/>
<path d="M0.817383 64.0896C3.2275 64.0896 5.63761 64.0896 8.12075 64.0896C8.12075 66.4334 8.12075 68.7773 8.12075 71.1921C10.5309 71.1921 12.941 71.1921 15.4241 71.1921C15.4241 73.536 15.4241 75.8798 15.4241 78.2947C17.8342 78.2947 20.2443 78.2947 22.7275 78.2947C22.7275 75.9509 22.7275 73.607 22.7275 71.1921C27.5477 71.1921 32.3679 71.1921 37.3342 71.1921C37.3342 75.8798 37.3342 80.5675 37.3342 85.3973C34.9241 85.3973 32.514 85.3973 30.0309 85.3973C30.0309 87.7411 30.0309 90.085 30.0309 92.4998C25.2106 92.4998 20.3904 92.4998 15.4241 92.4998C15.4241 90.156 15.4241 87.8121 15.4241 85.3973C13.014 85.3973 10.6039 85.3973 8.12075 85.3973C8.12075 97.1165 8.12075 108.836 8.12075 120.91C5.71064 120.91 3.30053 120.91 0.817383 120.91C0.817383 102.159 0.817383 83.4086 0.817383 64.0896Z" fill="#FCFCFC"/>
<path d="M73.8511 21.4742C76.2612 21.4742 78.6713 21.4742 81.1545 21.4742C81.1545 23.818 81.1545 26.1619 81.1545 28.5768C83.5646 28.5768 85.9747 28.5768 88.4578 28.5768C88.4578 30.9206 88.4578 33.2644 88.4578 35.6793C90.868 35.6793 93.2781 35.6793 95.7612 35.6793C95.7612 42.7109 95.7612 49.7424 95.7612 56.987C88.5309 56.987 81.3005 56.987 73.8511 56.987C73.8511 52.2993 73.8511 47.6116 73.8511 42.7819C71.441 42.7819 69.0309 42.7819 66.5477 42.7819C66.5477 45.1257 66.5477 47.4696 66.5477 49.8845C64.1376 49.8845 61.7275 49.8845 59.2444 49.8845C59.2444 42.8529 59.2444 35.8214 59.2444 28.5768C64.0646 28.5768 68.8848 28.5768 73.8511 28.5768C73.8511 26.2329 73.8511 23.8891 73.8511 21.4742Z" fill="#050505"/>
<path d="M103.065 0.166504C105.475 0.166504 107.885 0.166504 110.368 0.166504C110.368 2.51035 110.368 4.8542 110.368 7.26907C112.778 7.26907 115.188 7.26907 117.671 7.26907C117.671 11.9568 117.671 16.6445 117.671 21.4742C120.081 21.4742 122.492 21.4742 124.975 21.4742C124.975 23.818 124.975 26.1619 124.975 28.5768C120.154 28.5768 115.334 28.5768 110.368 28.5768C110.368 30.9206 110.368 33.2645 110.368 35.6793C107.958 35.6793 105.548 35.6793 103.065 35.6793C103.065 33.3355 103.065 30.9916 103.065 28.5768C100.654 28.5768 98.2443 28.5768 95.7612 28.5768C95.7612 26.2329 95.7612 23.8891 95.7612 21.4742C98.1713 21.4742 100.581 21.4742 103.065 21.4742C103.065 19.1304 103.065 16.7865 103.065 14.3716C100.654 14.3716 98.2443 14.3716 95.7612 14.3716C95.7612 12.0278 95.7612 9.68394 95.7612 7.26907C98.1713 7.26907 100.581 7.26907 103.065 7.26907C103.065 4.92522 103.065 2.58138 103.065 0.166504Z" fill="#FBFBFB"/>
<path d="M110.368 35.6793C115.188 35.6793 120.008 35.6793 124.975 35.6793C124.975 45.0547 124.975 54.4301 124.975 64.0896C120.154 64.0896 115.334 64.0896 110.368 64.0896C110.368 61.7457 110.368 59.4019 110.368 56.987C107.958 56.987 105.548 56.987 103.065 56.987C103.065 52.2993 103.065 47.6116 103.065 42.7819C105.475 42.7819 107.885 42.7819 110.368 42.7819C110.368 40.438 110.368 38.0942 110.368 35.6793Z" fill="#FDFDFD"/>
<path d="M15.4241 142.218C22.6545 142.218 29.8848 142.218 37.3342 142.218C37.3342 149.249 37.3342 156.281 37.3342 163.525C30.1039 163.525 22.8736 163.525 15.4241 163.525C15.4241 156.494 15.4241 149.462 15.4241 142.218Z" fill="#FCFCFC"/>
<path d="M124.975 120.91C132.205 120.91 139.435 120.91 146.885 120.91C146.885 127.942 146.885 134.973 146.885 142.218C139.654 142.218 132.424 142.218 124.975 142.218C124.975 135.186 124.975 128.155 124.975 120.91Z" fill="#030303"/>
<path d="M15.4241 99.6024C20.2444 99.6024 25.0646 99.6024 30.0309 99.6024C30.0309 101.946 30.0309 104.29 30.0309 106.705C34.8511 106.705 39.6713 106.705 44.6376 106.705C44.6376 109.049 44.6376 111.393 44.6376 113.808C42.2275 113.808 39.8174 113.808 37.3342 113.808C37.3342 116.151 37.3342 118.495 37.3342 120.91C30.1039 120.91 22.8736 120.91 15.4241 120.91C15.4241 113.879 15.4241 106.847 15.4241 99.6024Z" fill="#FCFCFC"/>
<path d="M161.492 64.0896C163.902 64.0896 166.312 64.0896 168.795 64.0896C168.795 68.7773 168.795 73.465 168.795 78.2947C171.205 78.2947 173.615 78.2947 176.098 78.2947C176.098 75.9509 176.098 73.607 176.098 71.1921C178.508 71.1921 180.918 71.1921 183.402 71.1921C183.402 78.2237 183.402 85.2552 183.402 92.4998C180.992 92.4998 178.581 92.4998 176.098 92.4998C176.098 90.156 176.098 87.8121 176.098 85.3973C168.868 85.3973 161.638 85.3973 154.188 85.3973C154.188 80.7096 154.188 76.0219 154.188 71.1921C156.598 71.1921 159.008 71.1921 161.492 71.1921C161.492 68.8483 161.492 66.5045 161.492 64.0896Z" fill="#F9F9F9"/>
<path d="M146.885 14.3716C154.115 14.3716 161.345 14.3716 168.795 14.3716C168.795 21.4032 168.795 28.4347 168.795 35.6793C161.565 35.6793 154.334 35.6793 146.885 35.6793C146.885 28.6478 146.885 21.6162 146.885 14.3716Z" fill="#FCFCFC"/>
<path d="M15.4241 14.3716C22.6545 14.3716 29.8848 14.3716 37.3342 14.3716C37.3342 21.4032 37.3342 28.4347 37.3342 35.6793C30.1039 35.6793 22.8736 35.6793 15.4241 35.6793C15.4241 28.6478 15.4241 21.6162 15.4241 14.3716Z" fill="#FCFCFC"/>
<path d="M59.2444 0.166504C68.8848 0.166504 78.5253 0.166504 88.4578 0.166504C88.4578 4.8542 88.4578 9.54189 88.4578 14.3716C86.0477 14.3716 83.6376 14.3716 81.1545 14.3716C81.1545 12.0278 81.1545 9.68394 81.1545 7.26907C78.7444 7.26907 76.3342 7.26907 73.8511 7.26907C73.8511 11.9568 73.8511 16.6445 73.8511 21.4742C71.441 21.4742 69.0309 21.4742 66.5477 21.4742C66.5477 16.7865 66.5477 12.0988 66.5477 7.26907C64.1376 7.26907 61.7275 7.26907 59.2444 7.26907C59.2444 4.92522 59.2444 2.58138 59.2444 0.166504Z" fill="#FBFBFB"/>
<path d="M81.1545 28.5768C83.5646 28.5768 85.9747 28.5768 88.4578 28.5768C88.4578 31.2136 88.4578 33.8504 88.4578 36.5671C90.5667 36.5671 92.6755 36.5671 94.8483 36.5671C94.8483 43.0127 94.8483 49.4583 94.8483 56.0992C88.2205 56.0992 81.5927 56.0992 74.764 56.0992C74.764 51.9975 74.764 47.8957 74.764 43.6697C76.5716 43.6697 78.3792 43.6697 80.2415 43.6697C80.2415 45.7206 80.2415 47.7714 80.2415 49.8844C82.9529 49.8844 85.6643 49.8844 88.4578 49.8844C88.4578 47.5406 88.4578 45.1968 88.4578 42.7819C86.0477 42.7819 83.6376 42.7819 81.1545 42.7819C81.1545 38.0942 81.1545 33.4065 81.1545 28.5768Z" fill="#FCFCFC"/>
<path d="M154.188 120.91C159.008 120.91 163.829 120.91 168.795 120.91C168.795 127.942 168.795 134.973 168.795 142.218C166.385 142.218 163.975 142.218 161.492 142.218C161.492 139.874 161.492 137.53 161.492 135.115C159.081 135.115 156.671 135.115 154.188 135.115C154.188 130.428 154.188 125.74 154.188 120.91Z" fill="#030303"/>
<path d="M59.2444 28.5768C64.0646 28.5768 68.8848 28.5768 73.8511 28.5768C73.8511 33.2644 73.8511 37.9521 73.8511 42.7819C71.441 42.7819 69.0309 42.7819 66.5477 42.7819C66.5477 45.1257 66.5477 47.4696 66.5477 49.8845C64.1376 49.8845 61.7275 49.8845 59.2444 49.8845C59.2444 42.8529 59.2444 35.8214 59.2444 28.5768Z" fill="#FBFBFB"/>
<path d="M139.581 163.525C141.992 163.525 144.402 163.525 146.885 163.525C146.885 168.213 146.885 172.901 146.885 177.731C139.654 177.731 132.424 177.731 124.975 177.731C124.975 175.387 124.975 173.043 124.975 170.628C129.795 170.628 134.615 170.628 139.581 170.628C139.581 168.284 139.581 165.94 139.581 163.525Z" fill="#FBFBFB"/>
<path d="M168.795 156.423C171.205 156.423 173.615 156.423 176.098 156.423C176.098 161.111 176.098 165.798 176.098 170.628C168.868 170.628 161.638 170.628 154.188 170.628C154.188 168.284 154.188 165.94 154.188 163.525C159.008 163.525 163.829 163.525 168.795 163.525C168.795 161.182 168.795 158.838 168.795 156.423Z" fill="#050505"/>
<path d="M51.941 92.4998C56.7612 92.4998 61.5814 92.4998 66.5477 92.4998C66.5477 94.8437 66.5477 97.1875 66.5477 99.6024C64.1376 99.6024 61.7275 99.6024 59.2444 99.6024C59.2444 101.946 59.2444 104.29 59.2444 106.705C54.4241 106.705 49.6039 106.705 44.6376 106.705C44.6376 104.361 44.6376 102.017 44.6376 99.6024C47.0477 99.6024 49.4578 99.6024 51.941 99.6024C51.941 97.2586 51.941 94.9147 51.941 92.4998Z" fill="#FAFAFA"/>
<path d="M176.098 71.1921C178.508 71.1921 180.918 71.1921 183.402 71.1921C183.402 78.2237 183.402 85.2552 183.402 92.4998C180.992 92.4998 178.581 92.4998 176.098 92.4998C176.098 90.156 176.098 87.8121 176.098 85.3973C173.688 85.3973 171.278 85.3973 168.795 85.3973C168.795 83.0534 168.795 80.7096 168.795 78.2947C171.205 78.2947 173.615 78.2947 176.098 78.2947C176.098 75.9509 176.098 73.607 176.098 71.1921Z" fill="#FBFBFB"/>
<path d="M103.065 163.525C105.475 163.525 107.885 163.525 110.368 163.525C110.368 165.869 110.368 168.213 110.368 170.628C112.778 170.628 115.188 170.628 117.671 170.628C117.671 172.972 117.671 175.316 117.671 177.731C112.851 177.731 108.031 177.731 103.065 177.731C103.065 173.043 103.065 168.355 103.065 163.525Z" fill="#FBFBFB"/>
<path d="M95.7612 21.4742C100.581 21.4742 105.402 21.4742 110.368 21.4742C110.368 26.1619 110.368 30.8496 110.368 35.6793C107.958 35.6793 105.548 35.6793 103.065 35.6793C103.065 33.3355 103.065 30.9916 103.065 28.5768C100.654 28.5768 98.2443 28.5768 95.7612 28.5768C95.7612 26.2329 95.7612 23.8891 95.7612 21.4742Z" fill="#070707"/>
<path d="M8.12075 56.987C24.9915 56.987 41.8623 56.987 59.2444 56.987C59.2444 61.6747 59.2444 66.3624 59.2444 71.1921C58.9431 71.1921 58.6418 71.1921 58.3314 71.1921C58.3314 66.7974 58.3314 62.4027 58.3314 57.8748C42.0632 57.8748 25.7949 57.8748 9.03368 57.8748C9.03368 59.6327 9.03368 61.3906 9.03368 63.2018C11.1425 63.2018 13.2514 63.2018 15.4241 63.2018C15.4241 65.8386 15.4241 68.4754 15.4241 71.1921C13.014 71.1921 10.6039 71.1921 8.12075 71.1921C8.12075 66.5045 8.12075 61.8168 8.12075 56.987Z" fill="#EEEEEE"/>
<path d="M15.4241 99.6024C20.2444 99.6024 25.0646 99.6024 30.0309 99.6024C30.0309 104.29 30.0309 108.978 30.0309 113.808C27.6208 113.808 25.2106 113.808 22.7275 113.808C22.7275 111.171 22.7275 108.534 22.7275 105.817C24.8363 105.817 26.9452 105.817 29.1179 105.817C29.1179 104.059 29.1179 102.301 29.1179 100.49C24.9002 100.49 20.6826 100.49 16.337 100.49C16.337 106.936 16.337 113.381 16.337 120.022C22.9649 120.022 29.5927 120.022 36.4213 120.022C36.4213 117.971 36.4213 115.921 36.4213 113.808C36.7226 113.808 37.0238 113.808 37.3342 113.808C37.3342 116.151 37.3342 118.495 37.3342 120.91C30.1039 120.91 22.8736 120.91 15.4241 120.91C15.4241 113.879 15.4241 106.847 15.4241 99.6024Z" fill="#EEEEEE"/>
<path d="M110.368 35.6793C115.188 35.6793 120.008 35.6793 124.975 35.6793C124.975 45.0547 124.975 54.4301 124.975 64.0896C120.154 64.0896 115.334 64.0896 110.368 64.0896C110.368 61.7457 110.368 59.4019 110.368 56.987C110.669 56.987 110.97 56.987 111.281 56.987C111.281 59.0379 111.281 61.0888 111.281 63.2018C115.499 63.2018 119.716 63.2018 124.062 63.2018C124.062 54.4123 124.062 45.6229 124.062 36.5671C119.844 36.5671 115.626 36.5671 111.281 36.5671C111.281 38.325 111.281 40.0829 111.281 41.8941C113.39 41.8941 115.499 41.8941 117.671 41.8941C117.671 44.5309 117.671 47.1677 117.671 49.8845C115.261 49.8845 112.851 49.8845 110.368 49.8845C110.368 45.1968 110.368 40.5091 110.368 35.6793Z" fill="#EEEEEE"/>
<path d="M88.4578 35.6793C90.868 35.6793 93.2781 35.6793 95.7612 35.6793C95.7612 42.7109 95.7612 49.7424 95.7612 56.987C88.5309 56.987 81.3005 56.987 73.8511 56.987C73.8511 52.2993 73.8511 47.6116 73.8511 42.7819C78.6713 42.7819 83.4915 42.7819 88.4578 42.7819C88.4578 45.1257 88.4578 47.4696 88.4578 49.8844C85.7464 49.8844 83.0351 49.8844 80.2415 49.8844C80.2415 47.8336 80.2415 45.7827 80.2415 43.6697C78.434 43.6697 76.6264 43.6697 74.764 43.6697C74.764 47.7714 74.764 51.8732 74.764 56.0992C81.3918 56.0992 88.0196 56.0992 94.8483 56.0992C94.8483 49.6536 94.8483 43.208 94.8483 36.5671C92.7394 36.5671 90.6306 36.5671 88.4578 36.5671C88.4578 36.2742 88.4578 35.9812 88.4578 35.6793Z" fill="#EEEEEE"/>
<path d="M66.5477 149.32C71.368 149.32 76.1882 149.32 81.1545 149.32C81.1545 151.664 81.1545 154.008 81.1545 156.423C76.3342 156.423 71.514 156.423 66.5477 156.423C66.5477 154.079 66.5477 151.735 66.5477 149.32Z" fill="#050505"/>
<path d="M73.8511 128.013C76.2612 128.013 78.6713 128.013 81.1545 128.013C81.1545 132.7 81.1545 137.388 81.1545 142.218C78.7443 142.218 76.3342 142.218 73.8511 142.218C73.8511 137.53 73.8511 132.842 73.8511 128.013Z" fill="#070707"/>
<path d="M44.6376 106.705C49.4578 106.705 54.2781 106.705 59.2444 106.705C59.2444 109.049 59.2444 111.393 59.2444 113.808C54.4241 113.808 49.6039 113.808 44.6376 113.808C44.6376 111.464 44.6376 109.12 44.6376 106.705Z" fill="#050505"/>
<path d="M154.188 78.2947C159.008 78.2947 163.829 78.2947 168.795 78.2947C168.795 80.6386 168.795 82.9824 168.795 85.3973C163.975 85.3973 159.154 85.3973 154.188 85.3973C154.188 83.0534 154.188 80.7096 154.188 78.2947Z" fill="#050505"/>
<path d="M22.7275 64.0896C27.5477 64.0896 32.368 64.0896 37.3342 64.0896C37.3342 66.4334 37.3342 68.7773 37.3342 71.1921C32.514 71.1921 27.6938 71.1921 22.7275 71.1921C22.7275 68.8483 22.7275 66.5045 22.7275 64.0896Z" fill="#050505"/>
<path d="M139.581 56.987C144.402 56.987 149.222 56.987 154.188 56.987C154.188 59.3309 154.188 61.6747 154.188 64.0896C149.368 64.0896 144.548 64.0896 139.581 64.0896C139.581 61.7457 139.581 59.4019 139.581 56.987Z" fill="#F9F9F9"/>
<path d="M88.4578 170.628C90.8679 170.628 93.2781 170.628 95.7612 170.628C95.7612 172.972 95.7612 175.316 95.7612 177.731C93.3511 177.731 90.941 177.731 88.4578 177.731C88.4578 175.387 88.4578 173.043 88.4578 170.628Z" fill="#F9F9F9"/>
<path d="M154.188 163.525C156.598 163.525 159.008 163.525 161.492 163.525C161.492 165.869 161.492 168.213 161.492 170.628C159.081 170.628 156.671 170.628 154.188 170.628C154.188 168.284 154.188 165.94 154.188 163.525Z" fill="#F7F7F7"/>
<path d="M117.671 163.525C120.081 163.525 122.492 163.525 124.975 163.525C124.975 165.869 124.975 168.213 124.975 170.628C122.565 170.628 120.154 170.628 117.671 170.628C117.671 168.284 117.671 165.94 117.671 163.525Z" fill="#F7F7F7"/>
<path d="M124.975 156.423C127.385 156.423 129.795 156.423 132.278 156.423C132.278 158.767 132.278 161.111 132.278 163.525C129.868 163.525 127.458 163.525 124.975 163.525C124.975 161.182 124.975 158.838 124.975 156.423Z" fill="#F7F7F7"/>
<path d="M168.795 142.218C171.205 142.218 173.615 142.218 176.098 142.218C176.098 144.562 176.098 146.905 176.098 149.32C173.688 149.32 171.278 149.32 168.795 149.32C168.795 146.976 168.795 144.633 168.795 142.218Z" fill="#070707"/>
<path d="M81.1545 142.218C83.5646 142.218 85.9747 142.218 88.4578 142.218C88.4578 144.562 88.4578 146.905 88.4578 149.32C86.0477 149.32 83.6376 149.32 81.1545 149.32C81.1545 146.976 81.1545 144.633 81.1545 142.218Z" fill="#070707"/>
<path d="M132.278 128.013C134.688 128.013 137.098 128.013 139.581 128.013C139.581 130.356 139.581 132.7 139.581 135.115C137.171 135.115 134.761 135.115 132.278 135.115C132.278 132.771 132.278 130.428 132.278 128.013Z" fill="#F7F7F7"/>
<path d="M73.8511 128.013C76.2612 128.013 78.6713 128.013 81.1545 128.013C81.1545 130.357 81.1545 132.7 81.1545 135.115C78.7444 135.115 76.3342 135.115 73.8511 135.115C73.8511 132.771 73.8511 130.428 73.8511 128.013Z" fill="#F7F7F7"/>
<path d="M95.7612 120.91C98.1713 120.91 100.581 120.91 103.065 120.91C103.065 123.254 103.065 125.598 103.065 128.013C100.654 128.013 98.2444 128.013 95.7612 128.013C95.7612 125.669 95.7612 123.325 95.7612 120.91Z" fill="#F7F7F7"/>
<path d="M81.1545 113.808C83.5646 113.808 85.9747 113.808 88.4578 113.808C88.4578 116.151 88.4578 118.495 88.4578 120.91C86.0477 120.91 83.6376 120.91 81.1545 120.91C81.1545 118.566 81.1545 116.222 81.1545 113.808Z" fill="#F7F7F7"/>
<path d="M22.7275 106.705C25.1376 106.705 27.5477 106.705 30.0309 106.705C30.0309 109.049 30.0309 111.393 30.0309 113.808C27.6208 113.808 25.2106 113.808 22.7275 113.808C22.7275 111.464 22.7275 109.12 22.7275 106.705Z" fill="#070707"/>
<path d="M124.975 92.4998C127.385 92.4998 129.795 92.4998 132.278 92.4998C132.278 94.8437 132.278 97.1875 132.278 99.6024C129.868 99.6024 127.458 99.6024 124.975 99.6024C124.975 97.2586 124.975 94.9147 124.975 92.4998Z" fill="#F7F7F7"/>
<path d="M117.671 85.3973C120.081 85.3973 122.492 85.3973 124.975 85.3973C124.975 87.7411 124.975 90.085 124.975 92.4998C122.565 92.4998 120.154 92.4998 117.671 92.4998C117.671 90.156 117.671 87.8121 117.671 85.3973Z" fill="#F7F7F7"/>
<path d="M44.6376 85.3973C47.0477 85.3973 49.4578 85.3973 51.941 85.3973C51.941 87.7411 51.941 90.085 51.941 92.4998C49.5309 92.4998 47.1208 92.4998 44.6376 92.4998C44.6376 90.156 44.6376 87.8121 44.6376 85.3973Z" fill="#F7F7F7"/>
<path d="M15.4241 71.1921C17.8342 71.1921 20.2443 71.1921 22.7275 71.1921C22.7275 73.536 22.7275 75.8798 22.7275 78.2947C20.3174 78.2947 17.9073 78.2947 15.4241 78.2947C15.4241 75.9509 15.4241 73.607 15.4241 71.1921Z" fill="#070707"/>
<path d="M44.6376 64.0896C47.0477 64.0896 49.4578 64.0896 51.941 64.0896C51.941 66.4334 51.941 68.7773 51.941 71.1921C49.5309 71.1921 47.1208 71.1921 44.6376 71.1921C44.6376 68.8483 44.6376 66.5045 44.6376 64.0896Z" fill="#070707"/>
<path d="M8.12075 64.0896C10.5309 64.0896 12.941 64.0896 15.4241 64.0896C15.4241 66.4334 15.4241 68.7773 15.4241 71.1921C13.014 71.1921 10.6039 71.1921 8.12075 71.1921C8.12075 68.8483 8.12075 66.5045 8.12075 64.0896Z" fill="#070707"/>
<path d="M176.098 56.987C178.508 56.987 180.919 56.987 183.402 56.987C183.402 59.3309 183.402 61.6747 183.402 64.0896C180.992 64.0896 178.581 64.0896 176.098 64.0896C176.098 61.7457 176.098 59.4019 176.098 56.987Z" fill="#F9F9F9"/>
<path d="M66.5477 56.987C68.9578 56.987 71.368 56.987 73.8511 56.987C73.8511 59.3309 73.8511 61.6747 73.8511 64.0896C71.441 64.0896 69.0309 64.0896 66.5477 64.0896C66.5477 61.7457 66.5477 59.4019 66.5477 56.987Z" fill="#F7F7F7"/>
<path d="M110.368 42.7819C112.778 42.7819 115.188 42.7819 117.671 42.7819C117.671 45.1257 117.671 47.4696 117.671 49.8845C115.261 49.8845 112.851 49.8845 110.368 49.8845C110.368 47.5406 110.368 45.1968 110.368 42.7819Z" fill="#070707"/>
<path d="M81.1545 42.7819C83.5646 42.7819 85.9747 42.7819 88.4578 42.7819C88.4578 45.1257 88.4578 47.4696 88.4578 49.8844C86.0477 49.8844 83.6376 49.8845 81.1545 49.8845C81.1545 47.5406 81.1545 45.1968 81.1545 42.7819Z" fill="#070707"/>
<path d="M103.065 28.5768C105.475 28.5768 107.885 28.5768 110.368 28.5768C110.368 30.9206 110.368 33.2645 110.368 35.6793C107.958 35.6793 105.548 35.6793 103.065 35.6793C103.065 33.3355 103.065 30.9916 103.065 28.5768Z" fill="#F7F7F7"/>
<path d="M95.7612 21.4742C98.1713 21.4742 100.581 21.4742 103.065 21.4742C103.065 23.818 103.065 26.1619 103.065 28.5768C100.654 28.5768 98.2443 28.5768 95.7612 28.5768C95.7612 26.2329 95.7612 23.8891 95.7612 21.4742Z" fill="#F7F7F7"/>
<path d="M73.8511 21.4742C76.2612 21.4742 78.6713 21.4742 81.1545 21.4742C81.1545 23.818 81.1545 26.1619 81.1545 28.5768C78.7444 28.5768 76.3342 28.5768 73.8511 28.5768C73.8511 26.2329 73.8511 23.8891 73.8511 21.4742Z" fill="#F7F7F7"/>
</svg>
